<svg version="1.1" id="Warstwa_1" xmlns="http://www.w3.org/2000/svg" xmlns:xlink="http://www.w3.org/1999/xlink" x="0px" y="0px"
	 viewBox="0 0 430 430" style="enable-background:new 0 0 430 430;" xml:space="preserve">
<style type="text/css">
	.Styl_x0020_grafiki_x0020_754{opacity:0.5;fill:#646e78;}
	.Styl_x0020_grafiki_x0020_953{opacity:0.5;fill:#646e78;}
	.Styl_x0020_grafiki_x0020_954{fill:#646e78;}
	.Styl_x0020_grafiki_x0020_955{fill:#f24c00;}
	.st0{fill:#646e78;}
	.st1{fill:none;stroke:#646e78;stroke-width:7;stroke-linecap:round;stroke-linejoin:round;stroke-miterlimit:10;}
	.st2{fill:#EBE6EF;}
	.st3{fill:#121331;}
	.st4{fill:#3A3347;}
	.st5{fill:#92140C;}
	.st6{fill:#f24c00;}
	.st7{opacity:0.5;fill:#f24c00;}
	.st8{opacity:0.5;fill:#EBE6EF;}
	.st9{fill:#FFC738;}
	.st10{opacity:0.5;fill:#FFC738;}
	.st11{fill:#121331;stroke:#EBE6EF;stroke-width:7;stroke-linecap:round;stroke-linejoin:round;stroke-miterlimit:10;}
	.st12{fill:#4BB3FD;}
	.st13{opacity:0.5;fill:#4BB3FD;}
	.st14{fill:none;stroke:#121331;stroke-width:7;stroke-linecap:round;stroke-linejoin:round;stroke-miterlimit:10;}
	.st15{opacity:0.5;}
	.st16{fill:#121331;stroke:#4BB3FD;stroke-width:30;stroke-linecap:round;stroke-linejoin:round;stroke-miterlimit:10;}
	.st17{fill:none;stroke:#121331;stroke-width:12;stroke-linecap:round;stroke-linejoin:round;}
	.st18{fill:#2CA58D;}
	.st19{fill:none;stroke:#08A88A;stroke-width:12;stroke-linecap:round;stroke-linejoin:round;stroke-miterlimit:10;}
	.st20{opacity:0.5;fill:#2CA58D;}
	.st21{opacity:0.5;fill:#646e78;}
	.st22{fill:none;stroke:#FFC738;stroke-width:7;stroke-linecap:round;stroke-linejoin:round;stroke-miterlimit:10;}
	.st23{fill:#3A3347;stroke:#121331;stroke-width:7;stroke-linecap:round;stroke-linejoin:round;stroke-miterlimit:10;}
	.st24{opacity:0.5;fill:#3A3347;}
	.st25{fill:url(#SVGID_1_);}
	.st26{fill:url(#SVGID_00000037693207892976830590000012777562479811327384_);}
	.st27{fill:url(#SVGID_00000013158947944963636410000011802623632340465550_);}
	.st28{fill:#B26836;}
	.st29{opacity:0.5;fill:#92140C;}
	.st30{fill:#F28BA8;}
	.st31{fill:none;stroke:#EBE6EF;stroke-width:7;stroke-linecap:round;stroke-linejoin:round;stroke-miterlimit:10;}
	.st32{opacity:0.5;fill:#B26836;}
	.st33{fill:#08A789;}
	.st34{fill:#FFFFFF;}
	.st35{fill:none;stroke:#B26836;stroke-width:7;stroke-linecap:round;stroke-linejoin:round;stroke-miterlimit:10;}
	.st36{opacity:0.99;fill:#EBE6EF;}
	.st37{fill:#F9C9C0;}
	.st38{opacity:0.5;fill:#F9C9C0;}
	.st39{opacity:0.5;fill:#F28BA8;}
	.st40{fill:none;stroke:#08A284;stroke-width:12;stroke-linecap:round;stroke-linejoin:round;stroke-miterlimit:10;}
	.st41{fill:none;stroke:#92140C;stroke-width:7;stroke-linecap:round;stroke-linejoin:round;stroke-miterlimit:10;}
	.st42{fill:none;stroke:#08A688;stroke-width:12;stroke-linecap:round;stroke-linejoin:round;stroke-miterlimit:10;}
	.st43{opacity:0.96;fill:#EBE6EF;}
	.st44{fill:none;stroke:#121331;stroke-width:12;stroke-linecap:round;stroke-linejoin:round;stroke-miterlimit:10;}
	.st45{fill:#08A88A;}
	.st46{fill:none;stroke:#2CA58D;stroke-width:7;stroke-linecap:round;stroke-linejoin:round;stroke-miterlimit:10;}
	.st47{fill:#121331;stroke:#FFC738;stroke-width:7;stroke-linecap:round;stroke-linejoin:round;stroke-miterlimit:10;}
	.st48{fill:#121331;stroke:#92140C;stroke-width:7;stroke-linejoin:round;stroke-miterlimit:10;}
	.st49{fill:none;stroke:#92140C;stroke-width:7;stroke-linejoin:round;stroke-miterlimit:10;}
	.st50{opacity:0.75;fill:#EBE6EF;}
	.st51{fill:#121331;stroke:#646e78;stroke-width:12;stroke-linecap:round;stroke-linejoin:round;stroke-miterlimit:10;}
	.st52{fill:#E94E12;}
	.st53{fill:#E84F16;}
	.st54{opacity:0.5;fill:#FFFFFF;}
</style>
<path class="Styl_x0020_grafiki_x0020_955" d="M138.81,283.61c0,0-24.32,24.29-35.28,72.18c-0.69,3.01-4.95,3.12-5.8,0.15
	C89.98,329,71.98,259.26,71.98,192.55c0-75.89,61.03-137.29,136.92-137.45c42.95-0.09,79.99,10.82,106.53,49.42
	c1.06,1.55,0.45,3.69-1.26,4.45c-35.87,15.88-47.97,39.61-47.97,39.61"/>
<path class="Styl_x0020_grafiki_x0020_954" d="M290.17,168.87c-17.15-20.35-42.83-33.28-71.53-33.28
	c-51.64,0-93.52,41.87-93.52,93.52c0,20.5,19.21,69.5,19.21,69.5c6.63,19.19,4.17,40.35-6.67,57.51l0,0
	c-2.33,3.69,0.32,8.51,4.69,8.51h10.23c11.6,0,22.63-5.01,30.26-13.74l26.23-30.01c2.64-3.02,6.46-4.76,10.48-4.76h0
	c4.5,0,8.71,2.17,11.32,5.83l12.45,17.43c11.46,16.06,29.23,26.47,48.84,28.63l62.52,6.87c2.28,0.25,3.98-2.04,3.09-4.15
	l-32.25-76.21c-0.31-0.74-1.03-1.22-1.83-1.22l-50.17-0.27c-10.25-0.06-18.53-8.38-18.53-18.63v0c0-7.59,4.61-14.43,11.65-17.27
	l55.69-22.5c1.49-0.6,2.24-2.28,1.7-3.79l-23.34-65.05c-0.68-1.91-3.02-2.6-4.64-1.38l-83.71,63.48"/>
<path class="Styl_x0020_grafiki_x0020_953" d="M212.39,228.01l77.83-59.02c-4.11-4.88-8.73-9.33-13.75-13.28L212.39,228.01z"/>
<path class="Styl_x0020_grafiki_x0020_953" d="M151.49,357.9L151.49,357.9c10.85-17.16,13.3-38.32,6.67-57.51
	c0,0-19.21-49.01-19.21-69.5c0-51.65,41.88-93.52,93.52-93.52c1.71,0,3.4,0.05,5.08,0.14c-6.11-1.25-12.43-1.92-18.91-1.92
	c-51.64,0-93.52,41.87-93.52,93.52c0,20.5,19.21,69.5,19.21,69.5c6.63,19.19,4.17,40.35-6.67,57.51h0
	c-2.33,3.69,0.32,8.51,4.69,8.51h9.76C150.52,362.88,150.05,360.18,151.49,357.9z"/>
<path class="st5" d="M238.97,57.21l-14.01,47.53c-0.55,1.85,0.51,3.8,2.37,4.35c0.33,0.1,0.66,0.14,0.99,0.14
	c1.51,0,2.91-0.99,3.36-2.51l14.13-47.94c0.03-0.11,0.04-0.21,0.06-0.32C243.59,58,241.29,57.58,238.97,57.21z"/>
<path class="st5" d="M187.09,56.89c-2.32,0.38-4.62,0.81-6.9,1.3c0.03,0.14,0.05,0.29,0.1,0.43l16.23,49.3
	c0.48,1.47,1.85,2.41,3.32,2.41c0.36,0,0.73-0.06,1.09-0.18c1.84-0.6,2.83-2.58,2.23-4.42L187.09,56.89z"/>
<path class="Styl_x0020_grafiki_x0020_754" d="M256.96,341.48l-12.45-17.44c-2.61-3.66-6.83-5.83-11.32-5.83
	c-1.61,0-3.18,0.31-4.67,0.84c0.53,0.49,1.03,1.03,1.46,1.63l14.12,19.78c10.97,15.36,27.96,25.33,46.73,27.39l6.21,0.68
	C280.97,364.65,266.69,355.11,256.96,341.48z"/>
</svg>
